<svg width="19" height="19" viewBox="0 0 19 19" fill="none" xmlns="http://www.w3.org/2000/svg">
    <path d="M2.79268 16.9401L1.30029 0.200623H17.6997L16.2058 16.9375L9.49003 18.7994L2.79268 16.9401V16.9401Z" fill="#1572B6"/>
    <path d="M9.50012 17.3764L14.9268 15.8719L16.2036 1.56932H9.50012V17.3764Z" fill="#33A9DC"/>
    <path d="M9.50012 7.63394H12.2168L12.4045 5.53162H9.50012V3.47858H14.6482L14.5989 4.02943L14.0943 9.68698H9.50012V7.63394Z" fill="white"/>
    <path d="M9.51227 12.9658L9.50321 12.9685L7.21683 12.3512L7.07062 10.7137H5.01001L5.29753 13.9374L9.50292 15.1045L9.51227 15.1019V12.9658V12.9658Z" fill="#EBEBEB"/>
    <path d="M12.0423 9.60019L11.795 12.3495L9.50525 12.9676V15.1037L13.714 13.9372L13.7449 13.5903L14.1021 9.60019H12.0423Z" fill="white"/>
    <path d="M9.50714 3.47858V5.53162H4.54815L4.50703 5.07027L4.41351 4.02943L4.36438 3.47858H9.50714V3.47858ZM9.50017 7.63423V9.68727H7.24258L7.20147 9.22593L7.1078 8.18508L7.05882 7.63423H9.50017V7.63423Z" fill="#EBEBEB"/>
</svg>