<svg width="19" height="19" viewBox="0 0 19 19" fill="none" xmlns="http://www.w3.org/2000/svg">
    <path fill-rule="evenodd" clip-rule="evenodd" d="M9.49998 0.757477C4.55003 0.757477 0.536133 4.77048 0.536133 9.72132C0.536133 13.6819 3.10455 17.0418 6.66616 18.2272C7.11399 18.3104 7.27846 18.0328 7.27846 17.796C7.27846 17.5823 7.27015 16.8762 7.26629 16.1271C4.77254 16.6694 4.24633 15.0695 4.24633 15.0695C3.83857 14.0334 3.25105 13.7579 3.25105 13.7579C2.43762 13.2016 3.31236 13.2132 3.31236 13.2132C4.21234 13.2763 4.68645 14.1369 4.68645 14.1369C5.48593 15.507 6.78342 15.1109 7.29494 14.882C7.37539 14.3027 7.6077 13.9071 7.86405 13.6833C5.87305 13.4569 3.77994 12.6881 3.77994 9.25345C3.77994 8.2748 4.13025 7.47516 4.70366 6.84727C4.61045 6.62165 4.30362 5.70995 4.79035 4.47524C4.79035 4.47524 5.54293 4.23433 7.2559 5.39407C7.97107 5.19531 8.73805 5.09541 9.49998 5.092C10.2615 5.09541 11.0289 5.19502 11.7454 5.39377C13.4563 4.23403 14.208 4.47495 14.208 4.47495C14.6959 5.7095 14.3891 6.62135 14.296 6.84698C14.8707 7.47487 15.2185 8.2745 15.2185 9.25315C15.2185 12.696 13.1216 13.4539 11.1255 13.676C11.4472 13.9542 11.7337 14.4998 11.7337 15.336C11.7337 16.5353 11.7233 17.5006 11.7233 17.7959C11.7233 18.0344 11.8848 18.3139 12.339 18.2259C15.8985 17.0393 18.464 13.6804 18.464 9.72132C18.4638 4.77078 14.4504 0.757625 9.49998 0.757625V0.757477Z" fill="#E9E9E9"/>
    <path d="M3.93114 13.6275C3.9114 13.672 3.84134 13.6853 3.77751 13.6549C3.7122 13.6258 3.67583 13.5651 3.69691 13.5204C3.7162 13.4744 3.78642 13.4618 3.85128 13.4925C3.9166 13.5218 3.9537 13.5831 3.93099 13.6276L3.93114 13.6275ZM4.29422 14.0325C4.25162 14.0722 4.16805 14.0538 4.11135 13.991C4.05256 13.9286 4.04158 13.8451 4.08507 13.8048C4.12931 13.7654 4.21035 13.7841 4.26913 13.8464C4.32762 13.9096 4.3392 13.9925 4.29437 14.0327L4.29422 14.0325ZM4.6478 14.5487C4.59288 14.587 4.50292 14.5512 4.44741 14.4715C4.39249 14.3916 4.39249 14.2959 4.44889 14.2577C4.50426 14.2194 4.59288 14.254 4.64928 14.333C4.70391 14.4139 4.70391 14.5096 4.6478 14.5485V14.5487ZM5.13185 15.0476C5.08287 15.1017 4.97807 15.0872 4.90148 15.0134C4.82325 14.9411 4.80143 14.8383 4.85056 14.7842C4.90044 14.7299 5.00568 14.745 5.08272 14.8184C5.16095 14.8905 5.18455 14.9935 5.13215 15.0474L5.13185 15.0476ZM5.79982 15.3372C5.778 15.4074 5.67736 15.4393 5.57568 15.4093C5.4743 15.3786 5.40795 15.2965 5.42873 15.2255C5.44951 15.1547 5.55089 15.1216 5.65317 15.1535C5.75455 15.1841 5.8209 15.2658 5.79982 15.3372ZM6.53355 15.3907C6.53607 15.4647 6.44998 15.5258 6.34355 15.5273C6.23623 15.5298 6.14939 15.4699 6.14835 15.3971C6.14835 15.3225 6.23267 15.262 6.33984 15.26C6.44627 15.258 6.5337 15.3174 6.5337 15.3906L6.53355 15.3907ZM7.21606 15.2747C7.22883 15.3467 7.15476 15.4207 7.04892 15.4405C6.94502 15.4598 6.84853 15.4149 6.83517 15.3435C6.82241 15.2696 6.89781 15.1955 7.00172 15.1764C7.1077 15.1581 7.2027 15.2016 7.21606 15.2748V15.2747Z" fill="#E9E9E9"/>
</svg>
