<svg width="19" height="19" viewBox="0 0 19 19" fill="none" xmlns="http://www.w3.org/2000/svg">
    <path d="M0.208984 0.209H18.791V18.7911H0.208984V0.209Z" fill="#F0DB4F"/>
    <path d="M17.2703 14.3593C17.1341 13.5115 16.5814 12.7995 14.944 12.1355C14.3751 11.8741 13.741 11.6869 13.5521 11.2559C13.485 11.005 13.4761 10.8637 13.5185 10.7118C13.6404 10.219 14.2286 10.0654 14.6949 10.2067C14.9952 10.3074 15.2794 10.5388 15.4509 10.9079C16.2527 10.3887 16.2511 10.3921 16.811 10.0353C16.606 9.71747 16.4966 9.57081 16.3624 9.43484C15.8801 8.89616 15.223 8.61873 14.1721 8.63996L13.6246 8.71076C13.1001 8.84332 12.6001 9.11867 12.307 9.48783C11.4273 10.4859 11.6782 12.2327 12.7486 12.9516C13.8031 13.7431 15.3522 13.9231 15.55 14.6633C15.7425 15.5693 14.8841 15.8626 14.0309 15.7584C13.4021 15.6277 13.0524 15.3081 12.6743 14.7269C11.9785 15.1296 11.9785 15.1296 11.263 15.5411C11.4327 15.9121 11.6109 16.0799 11.8953 16.4013C13.2414 17.7666 16.6097 17.6995 17.2139 15.633C17.2383 15.562 17.401 15.0888 17.2703 14.3593V14.3593ZM10.3108 8.74936H8.57272L8.56559 13.2429C8.56559 14.1985 8.61502 15.0746 8.45961 15.3431C8.20533 15.8712 7.54642 15.8058 7.24613 15.7034C6.9405 15.5531 6.78508 15.3395 6.60503 15.0376C6.5556 14.9509 6.51849 14.8838 6.50602 14.8786L5.0929 15.744C5.32787 16.2263 5.67403 16.6449 6.11741 16.9168C6.77974 17.3143 7.66992 17.4362 8.60092 17.2225C9.20684 17.046 9.72964 16.6804 10.0034 16.1239C10.3991 15.3943 10.3142 14.5113 10.3106 13.5345C10.3195 11.9411 10.3108 10.3479 10.3108 8.74936V8.74936Z" fill="#323330"/>
</svg>