<svg width="19" height="19" viewBox="0 0 19 19" fill="none" xmlns="http://www.w3.org/2000/svg">
    <path d="M9.5 11.1922C10.4346 11.1922 11.1922 10.4346 11.1922 9.49999C11.1922 8.56542 10.4346 7.8078 9.5 7.8078C8.56543 7.8078 7.80782 8.56542 7.80782 9.49999C7.80782 10.4346 8.56543 11.1922 9.5 11.1922Z" fill="#61DAFB"/>
    <path d="M15.9273 6.70936C15.6008 6.59061 15.2594 6.47186 14.9031 6.36796C14.9922 6.01171 15.0664 5.65546 15.1258 5.31405C15.4375 3.35468 15.0961 1.97421 14.1461 1.43983C13.8641 1.27655 13.5523 1.20233 13.1961 1.20233C12.157 1.20233 10.8359 1.97421 9.5 3.26561C8.16406 1.97421 6.84296 1.20233 5.8039 1.20233C5.44765 1.20233 5.13593 1.27655 4.8539 1.43983C3.9039 1.98905 3.5625 3.36952 3.87422 5.31405C3.93359 5.65546 4.00781 6.01171 4.09687 6.36796C3.74062 6.47186 3.39922 6.57577 3.07265 6.70936C1.21718 7.42186 0.207809 8.40155 0.207809 9.49999C0.207809 10.5984 1.23203 11.5781 3.07265 12.2906C3.39922 12.4094 3.74062 12.5281 4.09687 12.632C4.00781 12.9883 3.93359 13.3445 3.87422 13.6859C3.5625 15.6453 3.9039 17.0258 4.8539 17.5601C5.13593 17.7234 5.44765 17.7976 5.8039 17.7976C6.85781 17.7976 8.1789 17.0258 9.5 15.7344C10.8359 17.0258 12.157 17.7976 13.1961 17.7976C13.5523 17.7976 13.8641 17.7234 14.1461 17.5601C15.0961 17.0109 15.4375 15.6305 15.1258 13.6859C15.0664 13.3445 14.9922 12.9883 14.9031 12.632C15.2594 12.5281 15.6008 12.4242 15.9273 12.2906C17.7828 11.5781 18.7922 10.5984 18.7922 9.49999C18.7922 8.40155 17.7828 7.42186 15.9273 6.70936ZM13.7305 2.18202C14.3391 2.53827 14.5469 3.63671 14.2945 5.1953C14.25 5.50702 14.1758 5.83358 14.0867 6.17499C13.3148 5.99686 12.4984 5.87811 11.6375 5.80389C11.1328 5.09139 10.6133 4.45311 10.0937 3.87421C11.1922 2.79061 12.3055 2.04843 13.2109 2.04843C13.4039 2.04843 13.582 2.09296 13.7305 2.18202ZM12.068 10.9844C11.8008 11.4594 11.4891 11.9344 11.1625 12.4094C10.6133 12.4539 10.0641 12.4687 9.5 12.4687C8.92109 12.4687 8.37187 12.4539 7.8375 12.4094C7.51093 11.9344 7.21406 11.4594 6.94687 10.9844C6.66484 10.4945 6.39765 9.98983 6.16015 9.49999C6.39765 9.01015 6.66484 8.50546 6.94687 8.01561C7.21406 7.54061 7.52578 7.06561 7.85234 6.59061C8.40156 6.54608 8.95078 6.53124 9.51484 6.53124C10.0937 6.53124 10.643 6.54608 11.1773 6.59061C11.5039 7.06561 11.8008 7.54061 12.068 8.01561C12.35 8.50546 12.6172 9.01015 12.8547 9.49999C12.6023 9.98983 12.35 10.4797 12.068 10.9844ZM13.3 10.4945C13.5227 11.0141 13.7008 11.5187 13.8641 12.0234C13.3594 12.1422 12.825 12.2312 12.2609 12.3055C12.4391 12.0234 12.632 11.7266 12.7953 11.4148C12.9734 11.1031 13.1367 10.7914 13.3 10.4945ZM9.5 14.5172C9.14375 14.1312 8.80234 13.7156 8.47578 13.2851C8.81718 13.3 9.15859 13.3148 9.5 13.3148C9.8414 13.3148 10.1828 13.3 10.5242 13.2851C10.1977 13.7156 9.85625 14.1312 9.5 14.5172ZM6.73906 12.2906C6.175 12.2164 5.64062 12.1273 5.13593 12.0086C5.29921 11.5187 5.47734 10.9992 5.7 10.4797C5.86328 10.7766 6.02656 11.0883 6.20468 11.3851C6.38281 11.7117 6.56093 11.9937 6.73906 12.2906ZM5.7 8.50546C5.47734 7.98593 5.29921 7.48124 5.13593 6.97655C5.64062 6.8578 6.175 6.76874 6.73906 6.69452C6.56093 6.97655 6.36796 7.27343 6.20468 7.58514C6.02656 7.89686 5.86328 8.20858 5.7 8.50546ZM9.5 4.4828C9.85625 4.86874 10.1977 5.28436 10.5242 5.71483C10.1828 5.69999 9.8414 5.68514 9.5 5.68514C9.15859 5.68514 8.81718 5.69999 8.47578 5.71483C8.80234 5.28436 9.14375 4.86874 9.5 4.4828ZM12.7953 7.59999L12.2609 6.70936C12.825 6.78358 13.3594 6.87264 13.8641 6.99139C13.7008 7.48124 13.5227 8.00077 13.3 8.5203C13.1367 8.20858 12.9734 7.89686 12.7953 7.59999ZM4.70547 5.1953C4.45312 3.63671 4.66093 2.53827 5.26953 2.18202C5.41796 2.09296 5.59609 2.04843 5.78906 2.04843C6.67968 2.04843 7.79296 2.77577 8.90625 3.87421C8.38671 4.43827 7.86718 5.09139 7.3625 5.80389C6.50156 5.87811 5.68515 6.01171 4.91328 6.17499C4.82421 5.83358 4.76484 5.50702 4.70547 5.1953ZM1.03906 9.49999C1.03906 8.80233 1.88515 8.06014 3.36953 7.51093C3.6664 7.39218 3.99297 7.28827 4.31953 7.19921C4.55703 7.94139 4.8539 8.72811 5.21015 9.51483C4.8539 10.3016 4.54218 11.0734 4.31953 11.8156C2.27109 11.2219 1.03906 10.3312 1.03906 9.49999ZM5.26953 16.818C4.66093 16.4617 4.45312 15.3633 4.70547 13.8047C4.75 13.493 4.82421 13.1664 4.91328 12.825C5.68515 13.0031 6.50156 13.1219 7.3625 13.1961C7.86718 13.9086 8.38671 14.5469 8.90625 15.1258C7.80781 16.2094 6.69453 16.9516 5.78906 16.9516C5.59609 16.9516 5.41796 16.907 5.26953 16.818ZM14.2945 13.8047C14.5469 15.3633 14.3391 16.4617 13.7305 16.818C13.582 16.907 13.4039 16.9516 13.2109 16.9516C12.3203 16.9516 11.207 16.2242 10.0937 15.1258C10.6133 14.5617 11.1328 13.9086 11.6375 13.1961C12.4984 13.1219 13.3148 12.9883 14.0867 12.825C14.1758 13.1664 14.2352 13.493 14.2945 13.8047ZM15.6305 11.4891C15.3336 11.6078 15.007 11.7117 14.6805 11.8008C14.443 11.0586 14.1461 10.2719 13.7898 9.48515C14.1461 8.69843 14.4578 7.92655 14.6805 7.18436C16.7289 7.77811 17.9609 8.66874 17.9609 9.49999C17.9609 10.1976 17.1 10.9398 15.6305 11.4891Z" fill="#61DAFB"/>
</svg>